<?xml version="1.0" encoding="utf-8"?>
<!-- Svg Vector Icons : http://www.onlinewebfonts.com/icon -->
<!DOCTYPE svg PUBLIC "-//W3C//DTD SVG 1.1//EN" "http://www.w3.org/Graphics/SVG/1.1/DTD/svg11.dtd">
<svg version="1.1" xmlns="http://www.w3.org/2000/svg" xmlns:xlink="http://www.w3.org/1999/xlink" x="0px" y="0px" viewBox="0 0 256 256" enable-background="new 0 0 256 256" xml:space="preserve">
<metadata> Svg Vector Icons : http://www.onlinewebfonts.com/icon </metadata>
<g><g><path fill="#000000" d="M67.6,129.3c2.7-0.3,4.6-2.6,4.4-5.3c-0.2-2.3-2-4-4.1-4.3C53.2,115.3,43,101.6,43,86.2C43,67,58.6,51.3,77.7,51.3c2.7,0,4.8-2.2,4.8-4.9s-2.2-4.9-4.8-4.9c-24.5,0-44.4,20-44.4,44.6c0,14.6,7.2,28,18.5,36.2c-29.2,8.6-44.5,33.8-41.4,69.9c0.2,2.6,2.3,4.5,4.8,4.5c0.1,0,0.3,0,0.4,0c2.7-0.2,4.6-2.6,4.4-5.3C17,155.2,34.3,132.5,67.6,129.3z M154.6,134.8c16.8-9,28.2-26.8,28.2-47.2c0-29.4-23.8-53.4-53.1-53.4c-29.3,0-53.1,24-53.1,53.4c0,20.7,11.7,38.6,28.8,47.5c-34.6,10.8-59.9,43.3-59.9,81.7c0,2.7,2.2,4.9,4.8,4.9c2.7,0,4.8-2.2,4.8-4.9c0-41.7,33.8-75.7,75.3-75.7c41.5,0,75.3,34,75.3,75.7c0,2.7,2.2,4.9,4.9,4.9c2.7,0,4.8-2.2,4.8-4.9C215.6,178.1,189.8,145.3,154.6,134.8z M129.8,131.3c-23.9,0-43.4-19.6-43.4-43.6c0-24.1,19.5-43.6,43.4-43.6c23.9,0,43.4,19.6,43.4,43.6C173.2,111.7,153.7,131.3,129.8,131.3z M204,122.4c11.4-8.2,18.6-21.7,18.6-36.3c0-24.6-19.9-44.6-44.4-44.6c-2.7,0-4.8,2.2-4.8,4.9s2.2,4.9,4.8,4.9c19.1,0,34.7,15.7,34.7,34.9c0,15.5-10.3,29.3-25.1,33.5c-0.4,0.1-0.7,0.3-1.1,0.5c-1.5,0.7-2.6,2.1-2.8,3.9c-0.2,2.7,1.7,5.1,4.4,5.3c33.3,3.2,50.6,25.8,47.6,62.2c-0.2,2.7,1.8,5,4.4,5.3c0.1,0,0.3,0,0.4,0c2.5,0,4.6-1.9,4.8-4.5C248.7,156.2,233.3,130.9,204,122.4z"/></g></g>
</svg>